<svg class="icon" viewBox="0 0 1024 1024" version="1.1" xmlns="http://www.w3.org/2000/svg"
     width="200" height="200" fill="#BEC9D6">
    <path d="M170.66666667 375.46666667v-102.4c0-58.02666667 44.37333333-102.4 102.4-102.4h102.4c20.48 0 34.13333333-13.65333333 34.13333333-34.13333334s-13.65333333-34.13333333-34.13333333-34.13333333h-102.4c-95.57333333 0-170.66666667 75.09333333-170.66666667 170.66666667v102.4c0 20.48 13.65333333 34.13333333 34.13333333 34.13333333s34.13333333-13.65333333 34.13333334-34.13333333z m-68.26666667 273.06666666v102.4c0 95.57333333 75.09333333 170.66666667 170.66666667 170.66666667h102.4c20.48 0 34.13333333-13.65333333 34.13333333-34.13333333s-13.65333333-34.13333333-34.13333333-34.13333334h-102.4c-58.02666667 0-102.4-44.37333333-102.4-102.4v-102.4c0-20.48-13.65333333-34.13333333-34.13333334-34.13333333s-34.13333333 13.65333333-34.13333333 34.13333333z m819.2-273.06666666v-102.4c0-95.57333333-75.09333333-170.66666667-170.66666667-170.66666667h-102.4c-20.48 0-34.13333333 13.65333333-34.13333333 34.13333333s13.65333333 34.13333333 34.13333333 34.13333334h102.4c58.02666667 0 102.4 44.37333333 102.4 102.4v102.4c0 20.48 13.65333333 34.13333333 34.13333334 34.13333333s34.13333333-13.65333333 34.13333333-34.13333333z m-68.26666667 273.06666666v102.4c0 58.02666667-44.37333333 102.4-102.4 102.4h-102.4c-20.48 0-34.13333333 13.65333333-34.13333333 34.13333334s13.65333333 34.13333333 34.13333333 34.13333333h102.4c95.57333333 0 170.66666667-75.09333333 170.66666667-170.66666667v-102.4c0-20.48-13.65333333-34.13333333-34.13333333-34.13333333s-34.13333333 13.65333333-34.13333334 34.13333333z"
    />
</svg>